<?xml version="1.0" encoding="UTF-8" standalone="no"?><svg xmlns="http://www.w3.org/2000/svg" xmlns:xlink="http://www.w3.org/1999/xlink" contentScriptType="application/ecmascript" contentStyleType="text/css" height="437px" preserveAspectRatio="none" style="width:897px;height:437px;background:#FFFFFF;" version="1.1" viewBox="0 0 897 437" width="897px" zoomAndPan="magnify"><defs/><g><!--MD5=[405eeadfcc66a467dbeede5e461677f9]
cluster eventing.knative.dev--><polygon fill="#FFFFFF" points="20.5,6,194.5,6,201.5,28.2969,514.5,28.2969,514.5,206,20.5,206,20.5,6" style="stroke:#000000;stroke-width:1.5;"/><line style="stroke:#000000;stroke-width:1.5;" x1="20.5" x2="201.5" y1="28.2969" y2="28.2969"/><text fill="#000000" font-family="sans-serif" font-size="14" font-weight="bold" lengthAdjust="spacing" textLength="168" x="24.5" y="20.9951">eventing.knative.dev</text><!--MD5=[856587886680ca59905e8b1f3b1020fa]
cluster messaging.knative.dev--><polygon fill="#FFFFFF" points="16,230,207,230,214,252.2969,560,252.2969,560,430,16,430,16,230" style="stroke:#000000;stroke-width:1.5;"/><line style="stroke:#000000;stroke-width:1.5;" x1="16" x2="214" y1="252.2969" y2="252.2969"/><text fill="#000000" font-family="sans-serif" font-size="14" font-weight="bold" lengthAdjust="spacing" textLength="185" x="20" y="244.9951">messaging.knative.dev</text><!--MD5=[241b36de05534b6660b3ddf6e8766aa9]
entity Broker--><rect fill="#FEFECE" height="36.2969" style="stroke:#A80036;stroke-width:1.5;" width="69" x="36.5" y="96"/><text fill="#000000" font-family="sans-serif" font-size="14" lengthAdjust="spacing" textLength="49" x="46.5" y="118.9951">Broker</text><!--MD5=[6f87405281d5563a1d3129702a057d25]
entity T1--><rect fill="#FEFECE" height="76.8906" style="stroke:#A80036;stroke-width:1.5;" width="231" x="267.5" y="112.5"/><text fill="#000000" font-family="sans-serif" font-size="14" lengthAdjust="spacing" textLength="52" x="277.5" y="135.4951">Trigger</text><line style="stroke:#A80036;stroke-width:1.0;" x1="268.5" x2="497.5" y1="138.7969" y2="138.7969"/><text fill="#000000" font-family="sans-serif" font-size="14" lengthAdjust="spacing" textLength="211" x="277.5" y="155.792">events selected from Broker,</text><text fill="#000000" font-family="sans-serif" font-size="14" lengthAdjust="spacing" textLength="197" x="277.5" y="172.0889">replies sent back to Broker</text><!--MD5=[79c55d55872b2d2338533f8bcd4a021e]
entity T2--><rect fill="#FEFECE" height="36.2969" style="stroke:#A80036;stroke-width:1.5;" width="72" x="347" y="41"/><text fill="#000000" font-family="sans-serif" font-size="14" lengthAdjust="spacing" textLength="52" x="357" y="63.9951">Trigger</text><!--MD5=[6d13d96e3214069def66a922d7b4b439]
entity Channel--><rect fill="#FEFECE" height="36.2969" style="stroke:#A80036;stroke-width:1.5;" width="78" x="32" y="320"/><text fill="#000000" font-family="sans-serif" font-size="14" lengthAdjust="spacing" textLength="58" x="42" y="342.9951">Channel</text><!--MD5=[d0cae5ff9305becd6f502d4fe4f41481]
entity S1--><rect fill="#FEFECE" height="36.2969" style="stroke:#A80036;stroke-width:1.5;" width="111" x="327.5" y="265"/><text fill="#000000" font-family="sans-serif" font-size="14" lengthAdjust="spacing" textLength="91" x="337.5" y="287.9951">Subscription</text><!--MD5=[d3395af3100fe8cebf35265100c4415f]
entity S2--><rect fill="#FEFECE" height="76.8906" style="stroke:#A80036;stroke-width:1.5;" width="322" x="222" y="336.5"/><text fill="#000000" font-family="sans-serif" font-size="14" lengthAdjust="spacing" textLength="91" x="232" y="359.4951">Subscription</text><line style="stroke:#A80036;stroke-width:1.0;" x1="223" x2="543" y1="362.7969" y2="362.7969"/><text fill="#000000" font-family="sans-serif" font-size="14" lengthAdjust="spacing" textLength="302" x="232" y="379.792">events sent from Channel to Addressable,</text><text fill="#000000" font-family="sans-serif" font-size="14" lengthAdjust="spacing" textLength="252" x="232" y="396.0889">replies sent to second Addressable</text><ellipse cx="782.8497" cy="244.1246" fill="#FEFECE" rx="91.8497" ry="25.6246" style="stroke:#A80036;stroke-width:1.5;"/><text fill="#000000" font-family="sans-serif" font-size="14" font-style="italic" lengthAdjust="spacing" textLength="128" x="718.8497" y="241.228">«Knative Service»</text><text fill="#000000" font-family="sans-serif" font-size="14" lengthAdjust="spacing" textLength="88" x="738.8497" y="257.5249">Addressable</text><ellipse cx="782.7626" cy="375.0974" fill="#FEFECE" rx="108.7626" ry="25.0974" style="stroke:#A80036;stroke-width:1.5;"/><text fill="#000000" font-family="sans-serif" font-size="14" font-style="italic" lengthAdjust="spacing" textLength="156" x="704.7626" y="372.9709">«Kubernetes Service»</text><text fill="#000000" font-family="sans-serif" font-size="14" lengthAdjust="spacing" textLength="88" x="738.7626" y="389.2678">Addressable</text><!--MD5=[ca70dd5b957e49bae9dbb876bc3ab830]
reverse link Broker to T1--><path d="M110.69,122.721 C120.236,124.664 130.459,126.569 140,128 C181.319,134.198 226.872,139.042 267.204,142.652 " fill="none" id="Broker-backto-T1" style="stroke:#A80036;stroke-width:1.0;"/><polygon fill="#A80036" points="105.768,121.704,113.7729,127.4417,110.6647,122.7153,115.391,119.6071,105.768,121.704" style="stroke:#A80036;stroke-width:1.0;"/><text fill="#000000" font-family="sans-serif" font-size="13" lengthAdjust="spacing" textLength="41" x="145.5" y="124.0669">broker</text><!--MD5=[c37f10b1620fdb732a49817ba2190896]
reverse link Broker to T2--><path d="M110.757,107.124 C171.541,96.339 288.376,75.611 346.853,65.236 " fill="none" id="Broker-backto-T2" style="stroke:#A80036;stroke-width:1.0;"/><polygon fill="#A80036" points="105.766,108.009,115.3261,110.3763,110.6892,107.1361,113.9294,102.4992,105.766,108.009" style="stroke:#A80036;stroke-width:1.0;"/><text fill="#000000" font-family="sans-serif" font-size="13" lengthAdjust="spacing" textLength="41" x="145.5" y="90.0669">broker</text><!--MD5=[c14fd51cd8f236d988f79a43cad0424b]
link T1 to Addressable--><path d="M498.584,177.775 C565.705,193.459 648.553,212.818 707.299,226.545 " fill="none" id="T1-to-Addressable" style="stroke:#A80036;stroke-width:1.0;"/><polygon fill="#A80036" points="712.196,227.689,704.3433,221.7446,707.3274,226.5504,702.5216,229.5345,712.196,227.689" style="stroke:#A80036;stroke-width:1.0;"/><text fill="#000000" font-family="sans-serif" font-size="13" lengthAdjust="spacing" textLength="66" x="577" y="193.0669">subscriber</text><!--MD5=[3c0efd97b6669ce6f7dcdfcf069a0488]
reverse link Channel to S1--><path d="M115.253,330.326 C170.747,320.48 267.042,303.396 327.492,292.671 " fill="none" id="Channel-backto-S1" style="stroke:#A80036;stroke-width:1.0;"/><polygon fill="#A80036" points="110.012,331.256,119.5728,333.6206,114.935,330.3817,118.1739,325.7439,110.012,331.256" style="stroke:#A80036;stroke-width:1.0;"/><text fill="#000000" font-family="sans-serif" font-size="13" lengthAdjust="spacing" textLength="50" x="141" y="313.0669">channel</text><!--MD5=[5902024df8d8d89ecac836c08646c397]
reverse link Channel to S2--><path d="M115.377,347.6605 C123.53,349.2685 132.004,350.8006 140,352 C166.398,355.96 194.525,359.3672 221.914,362.2531 " fill="none" id="Channel-backto-S2" style="stroke:#A80036;stroke-width:1.0;"/><polygon fill="#A80036" points="110.35,346.6517,118.388,352.343,115.2524,347.6347,119.9608,344.4992,110.35,346.6517" style="stroke:#A80036;stroke-width:1.0;"/><text fill="#000000" font-family="sans-serif" font-size="13" lengthAdjust="spacing" textLength="50" x="141" y="348.0669">channel</text><!--MD5=[7178c3d221a7f446acfd8e3c70c3857a]
link S2 to Addressable--><path d="M513.394,336.362 C531.763,330.661 550.387,324.764 568,319 C620.06,301.963 678.745,281.291 721.476,265.967 " fill="none" id="S2-to-Addressable" style="stroke:#A80036;stroke-width:1.0;"/><polygon fill="#A80036" points="726.344,264.22,716.5219,263.4948,721.6378,265.9087,719.2239,271.0247,726.344,264.22" style="stroke:#A80036;stroke-width:1.0;"/><text fill="#000000" font-family="sans-serif" font-size="13" lengthAdjust="spacing" textLength="66" x="577" y="291.0669">subscriber</text><!--MD5=[ded111b0cb46cb3c07da1911681b36bb]
link S2 to A2--><path d="M544.161,375 C585.919,375 630.051,375 668.811,375 " fill="none" id="S2-to-A2" style="stroke:#A80036;stroke-width:1.0;"/><polygon fill="#A80036" points="673.998,375,664.998,371,668.998,375,664.998,379,673.998,375" style="stroke:#A80036;stroke-width:1.0;"/><text fill="#000000" font-family="sans-serif" font-size="13" lengthAdjust="spacing" textLength="32" x="594" y="371.0669">reply</text><!--MD5=[5697d78d38ce398c68936bd41407aa13]
@startuml
' Remove shadows
skinparam shadowing false
' Set ordering
left to right direction

usecase Addressable <<Knative Service>>
usecase Addressable AS A2 <<Kubernetes Service>>

package "eventing.knative.dev" {
agent Broker
agent T1 [
Trigger
- -
events selected from Broker,
replies sent back to Broker
]
agent "Trigger" as T2
}

Broker <- - T1 : broker
Broker <- - T2 : broker
Addressable <-u- T1 : subscriber

package "messaging.knative.dev" {
agent Channel
agent "Subscription" as S1
agent S2 [
Subscription
- - -
events sent from Channel to Addressable,
replies sent to second Addressable
]
}

Channel <- - S1 :channel
Channel <- - S2 :channel
Addressable <-u- S2 :subscriber
A2 <-u- S2 : reply
@enduml

@startuml
skinparam shadowing false
left to right direction

usecase Addressable <<Knative Service>>
usecase Addressable AS A2 <<Kubernetes Service>>

package "eventing.knative.dev" {
agent Broker
agent T1 [
Trigger
- -
events selected from Broker,
replies sent back to Broker
]
agent "Trigger" as T2
}

Broker <- - T1 : broker
Broker <- - T2 : broker
Addressable <-u- T1 : subscriber

package "messaging.knative.dev" {
agent Channel
agent "Subscription" as S1
agent S2 [
Subscription
- - -
events sent from Channel to Addressable,
replies sent to second Addressable
]
}

Channel <- - S1 :channel
Channel <- - S2 :channel
Addressable <-u- S2 :subscriber
A2 <-u- S2 : reply
@enduml

PlantUML version 1.2021.7(Sun May 23 12:40:07 UTC 2021)
(GPL source distribution)
Java Runtime: Java(TM) SE Runtime Environment
JVM: Java HotSpot(TM) 64-Bit Server VM
Default Encoding: UTF-8
Language: en
Country: US
--></g></svg>