<?xml version="1.0" encoding="UTF-8" standalone="no"?><svg xmlns="http://www.w3.org/2000/svg" xmlns:xlink="http://www.w3.org/1999/xlink" contentScriptType="application/ecmascript" contentStyleType="text/css" height="358px" preserveAspectRatio="none" style="width:686px;height:358px;background:#FFFFFF;" version="1.1" viewBox="0 0 686 358" width="686px" zoomAndPan="magnify"><defs/><g><!--MD5=[405eeadfcc66a467dbeede5e461677f9]
cluster eventing.knative.dev--><polygon fill="#FFFFFF" points="20.5,6,194.5,6,201.5,28.2969,329.5,28.2969,329.5,166,20.5,166,20.5,6" style="stroke:#000000;stroke-width:1.5;"/><line style="stroke:#000000;stroke-width:1.5;" x1="20.5" x2="201.5" y1="28.2969" y2="28.2969"/><text fill="#000000" font-family="sans-serif" font-size="14" font-weight="bold" lengthAdjust="spacing" textLength="168" x="24.5" y="20.9951">eventing.knative.dev</text><!--MD5=[856587886680ca59905e8b1f3b1020fa]
cluster messaging.knative.dev--><polygon fill="#FFFFFF" points="16,191,207,191,214,213.2969,349,213.2969,349,351,16,351,16,191" style="stroke:#000000;stroke-width:1.5;"/><line style="stroke:#000000;stroke-width:1.5;" x1="16" x2="214" y1="213.2969" y2="213.2969"/><text fill="#000000" font-family="sans-serif" font-size="14" font-weight="bold" lengthAdjust="spacing" textLength="185" x="20" y="205.9951">messaging.knative.dev</text><!--MD5=[241b36de05534b6660b3ddf6e8766aa9]
entity Broker--><rect fill="#FEFECE" height="36.2969" style="stroke:#A80036;stroke-width:1.5;" width="69" x="36.5" y="69"/><text fill="#000000" font-family="sans-serif" font-size="14" lengthAdjust="spacing" textLength="49" x="46.5" y="91.9951">Broker</text><!--MD5=[6f87405281d5563a1d3129702a057d25]
entity T1--><rect fill="#FEFECE" height="36.2969" style="stroke:#A80036;stroke-width:1.5;" width="72" x="241.5" y="112"/><text fill="#000000" font-family="sans-serif" font-size="14" lengthAdjust="spacing" textLength="52" x="251.5" y="134.9951">Trigger</text><!--MD5=[79c55d55872b2d2338533f8bcd4a021e]
entity T2--><rect fill="#FEFECE" height="36.2969" style="stroke:#A80036;stroke-width:1.5;" width="72" x="241.5" y="41"/><text fill="#000000" font-family="sans-serif" font-size="14" lengthAdjust="spacing" textLength="52" x="251.5" y="63.9951">Trigger</text><!--MD5=[6d13d96e3214069def66a922d7b4b439]
entity Channel--><rect fill="#FEFECE" height="36.2969" style="stroke:#A80036;stroke-width:1.5;" width="78" x="32" y="254"/><text fill="#000000" font-family="sans-serif" font-size="14" lengthAdjust="spacing" textLength="58" x="42" y="276.9951">Channel</text><!--MD5=[d0cae5ff9305becd6f502d4fe4f41481]
entity S1--><rect fill="#FEFECE" height="36.2969" style="stroke:#A80036;stroke-width:1.5;" width="111" x="222" y="297"/><text fill="#000000" font-family="sans-serif" font-size="14" lengthAdjust="spacing" textLength="91" x="232" y="319.9951">Subscription</text><!--MD5=[d3395af3100fe8cebf35265100c4415f]
entity S2--><rect fill="#FEFECE" height="36.2969" style="stroke:#A80036;stroke-width:1.5;" width="111" x="222" y="226"/><text fill="#000000" font-family="sans-serif" font-size="14" lengthAdjust="spacing" textLength="91" x="232" y="248.9951">Subscription</text><ellipse cx="571.8497" cy="144.1246" fill="#FEFECE" rx="91.8497" ry="25.6246" style="stroke:#A80036;stroke-width:1.5;"/><text fill="#000000" font-family="sans-serif" font-size="14" font-style="italic" lengthAdjust="spacing" textLength="128" x="507.8497" y="141.228">«Knative Service»</text><text fill="#000000" font-family="sans-serif" font-size="14" lengthAdjust="spacing" textLength="88" x="527.8497" y="157.5249">Addressable</text><ellipse cx="571.7626" cy="244.0974" fill="#FEFECE" rx="108.7626" ry="25.0974" style="stroke:#A80036;stroke-width:1.5;"/><text fill="#000000" font-family="sans-serif" font-size="14" font-style="italic" lengthAdjust="spacing" textLength="156" x="493.7626" y="241.9709">«Kubernetes Service»</text><text fill="#000000" font-family="sans-serif" font-size="14" lengthAdjust="spacing" textLength="88" x="527.7626" y="258.2678">Addressable</text><!--MD5=[ca70dd5b957e49bae9dbb876bc3ab830]
reverse link Broker to T1--><path d="M110.494,95.595 C120.124,97.717 130.434,99.964 140,102 C174.427,109.328 213.814,117.371 241.402,122.949 " fill="none" id="Broker-backto-T1" style="stroke:#A80036;stroke-width:1.0;"/><polygon fill="#A80036" points="105.528,94.499,113.4534,100.3461,110.4103,95.5775,115.1789,92.5344,105.528,94.499" style="stroke:#A80036;stroke-width:1.0;"/><text fill="#000000" font-family="sans-serif" font-size="13" lengthAdjust="spacing" textLength="41" x="145.5" y="98.0669">broker</text><!--MD5=[c37f10b1620fdb732a49817ba2190896]
reverse link Broker to T2--><path d="M111.178,81.636 C148.792,76.486 205.091,68.777 241.309,63.818 " fill="none" id="Broker-backto-T2" style="stroke:#A80036;stroke-width:1.0;"/><polygon fill="#A80036" points="105.769,82.376,115.2285,85.1177,110.7228,81.6975,114.143,77.1917,105.769,82.376" style="stroke:#A80036;stroke-width:1.0;"/><text fill="#000000" font-family="sans-serif" font-size="13" lengthAdjust="spacing" textLength="41" x="145.5" y="67.0669">broker</text><!--MD5=[c14fd51cd8f236d988f79a43cad0424b]
link T1 to Addressable--><path d="M313.782,131.689 C353.673,133.598 420.282,136.786 475.723,139.44 " fill="none" id="T1-to-Addressable" style="stroke:#A80036;stroke-width:1.0;"/><polygon fill="#A80036" points="481.052,139.695,472.2531,135.2701,476.0577,139.4564,471.8714,143.261,481.052,139.695" style="stroke:#A80036;stroke-width:1.0;"/><text fill="#000000" font-family="sans-serif" font-size="13" lengthAdjust="spacing" textLength="66" x="366" y="130.0669">subscriber</text><!--MD5=[3c0efd97b6669ce6f7dcdfcf069a0488]
reverse link Channel to S1--><path d="M115.18,281.6257 C123.416,283.4331 131.97,285.2909 140,287 C166.974,292.7413 196.993,298.9217 221.995,304.0117 " fill="none" id="Channel-backto-S1" style="stroke:#A80036;stroke-width:1.0;"/><polygon fill="#A80036" points="110.101,280.5087,118.0314,286.349,114.9842,281.583,119.7502,278.5358,110.101,280.5087" style="stroke:#A80036;stroke-width:1.0;"/><text fill="#000000" font-family="sans-serif" font-size="13" lengthAdjust="spacing" textLength="50" x="141" y="283.0669">channel</text><!--MD5=[5902024df8d8d89ecac836c08646c397]
reverse link Channel to S2--><path d="M115.745,266.011 C146.816,261.756 188.751,256.014 222,251.462 " fill="none" id="Channel-backto-S2" style="stroke:#A80036;stroke-width:1.0;"/><polygon fill="#A80036" points="110.465,266.733,119.9246,269.4747,115.4187,266.0545,118.8389,261.5487,110.465,266.733" style="stroke:#A80036;stroke-width:1.0;"/><text fill="#000000" font-family="sans-serif" font-size="13" lengthAdjust="spacing" textLength="50" x="141" y="252.0669">channel</text><!--MD5=[7178c3d221a7f446acfd8e3c70c3857a]
link S2 to Addressable--><path d="M331.47,225.891 C381.229,208.879 455.714,183.414 508.391,165.405 " fill="none" id="S2-to-Addressable" style="stroke:#A80036;stroke-width:1.0;"/><polygon fill="#A80036" points="513.419,163.686,503.6087,162.8153,508.6883,165.3048,506.1988,170.3844,513.419,163.686" style="stroke:#A80036;stroke-width:1.0;"/><text fill="#000000" font-family="sans-serif" font-size="13" lengthAdjust="spacing" textLength="66" x="366" y="190.0669">subscriber</text><!--MD5=[ded111b0cb46cb3c07da1911681b36bb]
link S2 to A2--><path d="M333.404,246.191 C343.891,246.528 354.784,246.823 365,247 C395.257,247.525 428.015,247.375 458.315,246.939 " fill="none" id="S2-to-A2" style="stroke:#A80036;stroke-width:1.0;"/><polygon fill="#A80036" points="463.549,246.86,454.4906,242.9942,458.5496,246.9343,454.6094,250.9933,463.549,246.86" style="stroke:#A80036;stroke-width:1.0;"/><text fill="#000000" font-family="sans-serif" font-size="13" lengthAdjust="spacing" textLength="32" x="383" y="243.0669">reply</text><!--MD5=[6eaf0875b2e7ac23aa73a185da7266bc]
@startuml
' Remove shadows
skinparam shadowing false

left to right direction


usecase Addressable <<Knative Service>>
usecase Addressable AS A2 <<Kubernetes Service>>

package "eventing.knative.dev" {
agent Broker
agent "Trigger" as T1
agent "Trigger" as T2
}

Broker <- - T1 : broker
Broker <- - T2 : broker
T1 - -> Addressable : subscriber

package "messaging.knative.dev" {
agent Channel
agent "Subscription" as S1
agent "Subscription" as S2
}

Channel <- - S1 :channel
Channel <- - S2 :channel
S2 - -> Addressable :subscriber
S2 - -> A2 : reply
@enduml

@startuml
skinparam shadowing false

left to right direction


usecase Addressable <<Knative Service>>
usecase Addressable AS A2 <<Kubernetes Service>>

package "eventing.knative.dev" {
agent Broker
agent "Trigger" as T1
agent "Trigger" as T2
}

Broker <- - T1 : broker
Broker <- - T2 : broker
T1 - -> Addressable : subscriber

package "messaging.knative.dev" {
agent Channel
agent "Subscription" as S1
agent "Subscription" as S2
}

Channel <- - S1 :channel
Channel <- - S2 :channel
S2 - -> Addressable :subscriber
S2 - -> A2 : reply
@enduml

PlantUML version 1.2021.7(Sun May 23 12:40:07 UTC 2021)
(GPL source distribution)
Java Runtime: Java(TM) SE Runtime Environment
JVM: Java HotSpot(TM) 64-Bit Server VM
Default Encoding: UTF-8
Language: en
Country: US
--></g></svg>